# xmcd CD database file
#
# Track frame offsets:
#	150
#	48755
#	103302
#	145060
#	187890
#	217465
#	239052
#	264630
#
# Disc length: 3803 seconds
#
# Revision: 0
# Processed by: cddbd v1.5.2PL0 Copyright (c) Steve Scherf et al.
# Submitted via: CDex 1.70
#
DISCID=7d0ed908
DTITLE=Ronnie Laws - Live in Concert
DYEAR=1900
DGENRE=Jazz
TTITLE0=Freedom Jazz Dance
TTITLE1=Big Daddy Swing
TTITLE2=Boogie Woogie Bossa Nova
TTITLE3=Listen Here
TTITLE4=See The Day
TTITLE5=Well You Needn`t
TTITLE6=Friends and Strangers
TTITLE7=Always There
EXTD=
EXTT0=
EXTT1=
EXTT2=
EXTT3=
EXTT4=
EXTT5=
EXTT6=
EXTT7=
PLAYORDER=
